<?xml version="1.0" standalone="no"?><!DOCTYPE svg PUBLIC "-//W3C//DTD SVG 1.1//EN" "http://www.w3.org/Graphics/SVG/1.1/DTD/svg11.dtd"><svg t="1541055595277" class="icon" style="" viewBox="0 0 1137 1024" version="1.1" xmlns="http://www.w3.org/2000/svg" p-id="4919" xmlns:xlink="http://www.w3.org/1999/xlink" width="222.0703125" height="200"><defs><style type="text/css"></style></defs><path d="M824.888889 0C725.333333 0 631.466667 44.600889 568.888889 117.191111A340.081778 340.081778 0 0 0 312.888889 0C136.533333 0 0 133.916444 0 306.972444c0 211.968 193.422222 382.293333 486.4 644.437334L568.888889 1024l82.488889-72.590222C944.355556 689.152 1137.777778 519.054222 1137.777778 306.972444 1137.777778 133.916444 1001.244444 0 824.888889 0zM604.046222 878.023111l-11.605333 10.24L568.888889 909.084444l-23.552-20.707555-11.491556-10.353778C395.946667 754.574222 276.821333 648.078222 197.973333 552.618667c-76.458667-92.501333-110.592-168.391111-110.592-245.76 0-60.871111 23.096889-117.077333 64.853334-158.151111C194.104889 107.861333 251.107556 85.333333 312.888889 85.333333c71.452444 0 142.222222 32.426667 189.098667 86.812445L568.888889 249.742222l66.901333-77.596444A253.041778 253.041778 0 0 1 824.888889 85.333333c61.781333 0 118.784 22.528 160.426667 63.374223 41.870222 41.073778 64.967111 97.28 64.967111 158.151111 0 77.368889-34.133333 153.258667-110.592 245.76-78.734222 95.459556-197.745778 201.955556-335.644445 325.404444z" p-id="4920"></path></svg>