<?xml version="1.0" standalone="no"?><!DOCTYPE svg PUBLIC "-//W3C//DTD SVG 1.1//EN" "http://www.w3.org/Graphics/SVG/1.1/DTD/svg11.dtd"><svg t="1541055572568" class="icon" style="" viewBox="0 0 1024 1024" version="1.1" xmlns="http://www.w3.org/2000/svg" p-id="4562" xmlns:xlink="http://www.w3.org/1999/xlink" width="200" height="200"><defs><style type="text/css"></style></defs><path d="M906.295 536.643H585.93c-27.22 0-49.286 22.069-49.286 49.287v320.365c0 27.217 22.066 49.286 49.286 49.286h320.365c27.218 0 49.286-22.069 49.286-49.286V585.93c0-27.217-22.068-49.287-49.286-49.287z m0 369.653H585.93V585.93h320.365v320.366zM438.069 536.643H117.704c-27.218 0-49.287 22.069-49.287 49.287v320.365c0 27.217 22.068 49.286 49.287 49.286H438.07c27.219 0 49.287-22.069 49.287-49.286V585.93c0-27.217-22.068-49.287-49.287-49.287z m0 369.653H117.704V585.93H438.07v320.366zM906.295 68.418H585.93c-27.22 0-49.286 22.069-49.286 49.288v320.363c0 27.22 22.066 49.288 49.286 49.288h320.365c27.218 0 49.286-22.068 49.286-49.288V117.706c0-27.22-22.068-49.288-49.286-49.288z m0 369.651H585.93V117.706h320.365v320.363zM438.069 68.42H117.704c-27.218 0-49.287 22.068-49.287 49.287v320.363c0 27.22 22.068 49.288 49.287 49.288H438.07c27.219 0 49.287-22.068 49.287-49.288V117.706c0-27.22-22.068-49.288-49.287-49.288z m0 369.65H117.704V117.706H438.07v320.363z" p-id="4563"></path></svg>