<?xml version="1.0" standalone="no"?><!DOCTYPE svg PUBLIC "-//W3C//DTD SVG 1.1//EN" "http://www.w3.org/Graphics/SVG/1.1/DTD/svg11.dtd"><svg t="1541055640758" class="icon" style="" viewBox="0 0 1024 1024" version="1.1" xmlns="http://www.w3.org/2000/svg" p-id="5635" xmlns:xlink="http://www.w3.org/1999/xlink" width="200" height="200"><defs><style type="text/css"></style></defs><path d="M991.45989 912.081744V143.581864a80.254648 80.254648 0 0 0-79.980741-79.980741 80.227257 80.227257 0 0 0-80.008131 79.980741v768.49988a80.199866 80.199866 0 0 0 80.008131 79.980741 80.227257 80.227257 0 0 0 79.980741-79.980741M476.734519 912.081744V143.581864c0-43.962017-35.963943-79.980741-79.980741-79.980741s-80.008132 35.991333-80.008131 79.980741v768.49988c0 43.989408 35.991333 79.980741 80.008131 79.980741s79.980741-35.991333 79.980741-79.980741M734.124595 912.081744V513.191494a80.254648 80.254648 0 0 0-80.008131-80.008132 80.227257 80.227257 0 0 0-79.980741 80.008132v398.89025a80.199866 80.199866 0 0 0 79.980741 79.980741 80.227257 80.227257 0 0 0 80.008131-79.980741M219.426615 912.081744V513.191494a80.254648 80.254648 0 0 0-80.008132-80.008132 80.254648 80.254648 0 0 0-79.980741 80.008132v398.89025a80.254648 80.254648 0 0 0 79.980741 79.980741 80.227257 80.227257 0 0 0 80.008132-79.980741" fill="#595757" p-id="5636"></path></svg>