<?xml version="1.0" standalone="no"?><!DOCTYPE svg PUBLIC "-//W3C//DTD SVG 1.1//EN" "http://www.w3.org/Graphics/SVG/1.1/DTD/svg11.dtd"><svg t="1541055613348" class="icon" style="" viewBox="0 0 1024 1024" version="1.1" xmlns="http://www.w3.org/2000/svg" p-id="5273" xmlns:xlink="http://www.w3.org/1999/xlink" width="200" height="200"><defs><style type="text/css"></style></defs><path d="M521.648754 783.206842c12.979616 0 23.517623-10.568706 23.517623-23.584138V429.461145c0-13.021571-10.538007-23.584138-23.517623-23.584138s-23.514553 10.56359-23.514553 23.584138v330.155419c0 13.021571 10.534937 23.590278 23.514553 23.590278z m141.094482 0c12.979616 0 23.517623-10.568706 23.517623-23.584138V429.461145c0-13.021571-10.538007-23.584138-23.517623-23.584138s-23.517623 10.56359-23.517623 23.584138v330.155419c0.001023 13.021571 10.539031 23.590278 23.517623 23.590278z m-282.189987 0c12.981662 0 23.517623-10.568706 23.517623-23.584138V429.461145c0-13.021571-10.534937-23.584138-23.517623-23.584138-12.979616 0-23.514553 10.56359-23.514553 23.584138v330.155419c0 13.021571 10.534937 23.590278 23.514553 23.590278z m470.314599-636.742049H709.778482V99.301633c0-26.040073-21.069875-47.168276-47.034223-47.168275H380.553249c-25.959232 0-47.032176 21.081131-47.032176 47.168275v47.16316H192.428637c-25.961278 0-47.032176 21.126156-47.032176 47.168276v47.163159c0 26.040073 21.069875 47.163159 47.032176 47.16316v589.575819c0 52.070936 42.092677 94.331435 94.063329 94.331435H756.807588c51.922557 0 94.066399-42.213427 94.066399-94.331435V287.959388c25.958208 0 47.032176-21.081131 47.032177-47.15702v-47.168276c-0.004093-26.040073-21.073968-47.169299-47.038316-47.169299z m-470.314599-25.684986c0-13.015432 10.538007-23.579021 23.517623-23.579021h235.155764c12.984732 0 23.517623 10.562567 23.517623 23.579021v23.584138H380.553249v-23.584138z m423.285492 756.7554c0 26.037003-21.067828 47.163159-47.032176 47.16316H286.491966c-25.964348 0-47.032176-21.126156-47.032176-47.16316V287.959388H803.838741v589.575819z m23.517623-636.733862h-611.41522c-12.976546 0-23.511483-10.571776-23.511483-23.584138 0-13.018501 10.534937-23.584138 23.511483-23.584138h611.41522c12.979616 0 23.517623 10.565636 23.517623 23.584138-0.00614 13.013385-10.538007 23.584138-23.517623 23.584138z" p-id="5274"></path></svg>