<?xml version="1.0" standalone="no"?><!DOCTYPE svg PUBLIC "-//W3C//DTD SVG 1.1//EN" "http://www.w3.org/Graphics/SVG/1.1/DTD/svg11.dtd"><svg t="1541055502218" class="icon" style="" viewBox="0 0 1024 1024" version="1.1" xmlns="http://www.w3.org/2000/svg" p-id="1016" xmlns:xlink="http://www.w3.org/1999/xlink" width="200" height="200"><defs><style type="text/css"></style></defs><path d="M520.4 926.7c-10.6 0-20.2-5.6-25.8-14.9-3.8-6.4-5.7-14.3-5.7-23.7V580.7L156.5 913.1c-9 9-18.6 13.6-28.5 13.6-15.7 0-31.5-11.9-31.5-38.6V135.9c0-26.7 15.8-38.6 31.5-38.6 9.9 0 19.5 4.6 28.5 13.6l332.4 332.4V135.9c0-26.7 15.8-38.6 31.5-38.6 9.9 0 19.5 4.6 28.5 13.6l362.8 362.8c21.1 21.1 21.1 55.5 0 76.6L548.9 913.1c-9 9-18.6 13.6-28.5 13.6z m11.8-506.3v448L881 519.7c4.3-4.3 4.3-11 0-15.3L532.2 155.6v264.8zM139.8 155.6v712.9l348.8-348.8c1.2-1.2 1.6-1.9 2.1-3l2-4.7-2-4.7c-0.4-1-0.9-1.8-2.1-3L139.8 155.6z" fill="#231815" p-id="1017"></path></svg>