<?xml version="1.0" standalone="no"?><!DOCTYPE svg PUBLIC "-//W3C//DTD SVG 1.1//EN" "http://www.w3.org/Graphics/SVG/1.1/DTD/svg11.dtd"><svg t="1541055507264" class="icon" style="" viewBox="0 0 1024 1024" version="1.1" xmlns="http://www.w3.org/2000/svg" p-id="1141" xmlns:xlink="http://www.w3.org/1999/xlink" width="200" height="200"><defs><style type="text/css"></style></defs><path d="M896 926.7c-9.9 0-19.5-4.6-28.5-13.6L535.1 580.7V888c0 26.7-15.8 38.6-31.5 38.6-9.9 0-19.5-4.6-28.5-13.6L112.4 550.3c-21.1-21.1-21.1-55.5 0-76.6l362.8-362.8c9-9 18.6-13.6 28.5-13.6 15.7 0 31.5 11.9 31.5 38.6v307.4l332.4-332.4c9-9 18.6-13.6 28.5-13.6 15.7 0 31.5 11.9 31.5 38.6V888c-0.1 26.7-15.9 38.7-31.6 38.7zM531.3 512l2 4.7c0.4 1 0.9 1.8 2.1 2.9l348.8 348.8V155.6L535.4 504.3c-1.2 1.2-1.6 2-2.1 2.9l-2 4.8z m-39.5-356.4L143 504.3c-4.3 4.3-4.3 11 0 15.3l348.8 348.8V155.6z" fill="#231815" p-id="1142"></path></svg>